<svg xmlns="http://www.w3.org/2000/svg" xmlns:xlink="http://www.w3.org/1999/xlink" width="100" height="100" viewBox="0 0 100 100">
  <defs>
    <circle id="icon-support-a" cx="50" cy="50" r="50"/>
    <circle id="icon-support-c" cx="50" cy="50" r="50"/>
    <path id="icon-support-e" d="M65,14.9 L92.9,22.6 C96.1,23.7 98.6,26.1 100,29.2 L100,39 L0,39 L0,29.2 C1.3,26.1 3.9,23.7 7.1,22.6 L35,14.9 L35,0 L65,0 L65,14.9 Z"/>
    <path id="icon-support-g" d="M65,14.9 L92.9,22.6 C96.1,23.7 98.6,26.1 100,29.2 L100,39 L0,39 L0,29.2 C1.3,26.1 3.9,23.7 7.1,22.6 L35,14.9 L35,0 L65,0 L65,14.9 Z"/>
    <path id="icon-support-i" d="M9,20 C3.9,19.5 0,15.2 0,10 C0,4.8 3.9,0.6 9,0 L9,20 Z"/>
    <path id="icon-support-k" d="M0,20 C5.1,19.5 9,15.2 9,10 C9,4.8 5.1,0.6 0,0 L0,20 Z"/>
  </defs>
  <g fill="none" fill-rule="evenodd">
    <circle cx="50" cy="50" r="50" fill="#F8E71C" fill-rule="nonzero"/>
    <mask id="icon-support-b" fill="#fff">
      <use xlink:href="#icon-support-a"/>
    </mask>
    <path fill="#E6C19C" fill-rule="nonzero" d="M65,75.9 L92.9,83.6 C96.1,84.7 98.6,87.1 100,90.2 L100,100 L0,100 L0,90.2 C1.3,87.1 3.9,84.7 7.1,83.6 L35,75.9 L35,61 L65,61 L65,75.9 Z" mask="url(#icon-support-b)"/>
    <mask id="icon-support-d" fill="#fff">
      <use xlink:href="#icon-support-c"/>
    </mask>
    <g mask="url(#icon-support-d)">
      <g transform="translate(0 61)">
        <mask id="icon-support-f" fill="#fff">
          <use xlink:href="#icon-support-e"/>
        </mask>
        <path fill="#D4B08C" fill-rule="nonzero" d="M50,17 C48.3,17 46.1,16.6 44.6,15.9 C42.9,15 36.6,9.8 34.4,7.6 C31.6,4.6 30.2,0.8 29.8,-5.7 C29.4,-12.2 27.7,-35.4 27.7,-40.7 C27.7,-48.2 33.4,-59.9 49.8,-59.9 L49.9,-59.9 L49.9,-59.9 L49.9,-59.9 L50,-59.9 C66.5,-59.8 72.1,-48.2 72.1,-40.7 C72.1,-35.4 70.4,-12.2 70,-5.7 C69.6,0.8 68.2,4.5 65.4,7.6 C63.3,9.9 57,15 55.2,15.9 C53.9,16.6 51.7,17 50,17 L50,17 Z" mask="url(#icon-support-f)"/>
        <mask id="icon-support-h" fill="#fff">
          <use xlink:href="#icon-support-g"/>
        </mask>
        <path fill="#20AEB4" fill-rule="nonzero" d="M0,-3 L100,-3 L100,39 L0,39 L0,-3 Z M50,27 C61,27 70,20.7 70,13 C70,5.3 61,-1 50,-1 C39,-1 30,5.3 30,13 C30,20.7 39,27 50,27 Z" mask="url(#icon-support-h)"/>
      </g>
    </g>
    <path fill="#F2CEA5" fill-rule="nonzero" d="M50,74 C48.5,74 46.5,73.7 45.2,73.1 C43.6,72.4 38,68.5 36.1,66.8 C33.6,64.5 32.3,61.7 31.9,56.8 C31.5,51.9 30,34.5 30,30.5 C30,24.8 35.1,16 50,16 L50,16 L50,16 L50,16 L50,16 C64.9,16 70,24.8 70,30.5 C70,34.5 68.5,52 68.1,56.9 C67.7,61.8 66.5,64.6 63.9,66.9 C62,68.6 56.3,72.5 54.8,73.2 C53.5,73.7 51.5,74 50,74 L50,74 Z"/>
    <path fill="#D98C21" fill-rule="nonzero" d="M68,41.5 C68,41.5 69.6,41.9 72.5,40.9 C72.9,39.1 74,33.9 74,31 C74,28.1 73.7,25.3 72.1,22.9 C70.3,20.3 66.5,18.8 64.5,18.8 C62.2,20.2 56.8,23.4 55.1,25.3 C54.2,26.3 55.5,27.1 55.5,27.1 C55.5,27.1 56.7,26.6 57.2,26.5 C59.7,25.8 63.5,26.2 65.6,28.1 C68,30.3 68,35.5 68.1,36.9 C68,38.2 68,41.5 68,41.5 Z"/>
    <path fill="#E6A422" fill-rule="nonzero" d="M27.5,41 C30.4,42 32,44.4 32,44.4 C32,44.4 32,39.2 32,38.1 C32,36.5 32,31.6 34.4,28.4 C37.6,24.1 42.8,23.1 45.5,24.9 C46.9,25.8 51.6,30.4 56.6,26.6 C59.6,24.3 65.1,19.1 65.1,19.1 C65.1,19.1 62.2,10.2 49,11.2 C43.4,11.7 37.2,10.3 37.2,10.3 C37.2,10.3 37.1,12.8 38.1,14.1 C29.8,16.4 27.1,22.4 26.3,27 C26.1,27.9 26,28.8 26,29.7 C26,30.2 26,30.7 26,31.1 C26,34 27.1,39.1 27.5,41 Z"/>
    <path fill="#A3705F" fill-rule="nonzero" d="M57,60 L43,60 C42.6,60 42.4,60.4 42.6,60.8 C43.9,63.1 46.3,64.3 49.3,64.5 C52.4,64.7 55.8,63.2 57.4,60.8 C57.6,60.5 57.4,60 57,60 Z"/>
    <circle cx="59" cy="45" r="2" fill="#262626" fill-rule="nonzero"/>
    <circle cx="41" cy="45" r="2" fill="#262626" fill-rule="nonzero"/>
    <path stroke="#CC9872" stroke-width="2" d="M35,42 C35,42 36.1,39 41.1,39 C44.5,39 46.5,40.5 47.5,42"/>
    <path stroke="#BB8660" stroke-width="2" d="M65.1,42 C65.1,42 64,39 59,39 C54.2,39 52,42 52,44 C52,45.9 52,53 52,53"/>
    <path fill="#6B363E" fill-rule="nonzero" d="M73,37 C73,24.3 62.7,14 50,14 C37.3,14 27,24.3 27,37 L27,45 L30,45 L30,37 C29.9,26 38.9,16.9 50,17 C61.1,16.9 70.1,26 70,37 L70,46 L73,46 L73,37 Z"/>
    <path stroke="#6B363E" stroke-width="2" d="M71,55.2 C70.9,68.3 58,69 58,69"/>
    <path fill="#452228" fill-rule="nonzero" d="M52.3,67.9 L58.1,66.3 C59.2,66 60.3,66.6 60.5,67.7 L61,69.6 C61.3,70.7 60.7,71.8 59.6,72 L53.8,73.6 C52.7,73.9 51.6,73.3 51.4,72.2 L50.9,70.3 C50.6,69.3 51.3,68.2 52.3,67.9 Z"/>
    <path fill="#6B363E" fill-rule="nonzero" d="M32,58 C26.9,57.5 23,53.2 23,48 C23,42.8 26.9,38.6 32,38 L32,58 Z"/>
    <g transform="translate(23 38)">
      <mask id="icon-support-j" fill="#fff">
        <use xlink:href="#icon-support-i"/>
      </mask>
      <rect width="7" height="20" fill="#452228" fill-rule="nonzero" mask="url(#icon-support-j)"/>
    </g>
    <path fill="#6B363E" fill-rule="nonzero" d="M68,58 C73.1,57.5 77,53.2 77,48 C77,42.8 73.1,38.6 68,38 L68,58 Z"/>
    <g transform="translate(68 38)">
      <mask id="icon-support-l" fill="#fff">
        <use xlink:href="#icon-support-k"/>
      </mask>
      <rect width="8" height="20" x="2" fill="#452228" fill-rule="nonzero" mask="url(#icon-support-l)"/>
    </g>
  </g>
</svg>
