<svg xmlns="http://www.w3.org/2000/svg" width="100" height="100" viewBox="0 0 100 100">
  <g fill="none">
    <circle cx="50" cy="50" r="50" fill="#20AEB4"/>
    <g transform="translate(20.91 20.91)">
      <path fill="#FFF" d="M58.1818182,5.45454545 L58.1818182,52.7272727 C58.1818182,55.7363636 55.7363636,58.1818182 52.7272727,58.1818182 L5.45454545,58.1818182 C2.44545455,58.1818182 0,55.7363636 0,52.7272727 L0,5.45454545 C0,2.44545455 2.44545455,0 5.45454545,0 L52.7272727,0 C55.7363636,0 58.1818182,2.44545455 58.1818182,5.45454545 Z"/>
      <path fill="#E5F6F2" d="M58.1818182,8.13636364 L58.1818182,52.7272727 C58.1818182,55.7363636 55.7363636,58.1818182 52.7272727,58.1818182 L5.45454545,58.1818182 C2.44545455,58.1818182 0,55.7363636 0,52.7272727 L0,40.2363636 L10.1909091,33.6818182 L25.6545455,36.4090909 L39.7727273,27 L47.9181818,12.5363636 L58.1818182,8.13636364 Z"/>
      <path fill="#FFF" d="M58.1818182,15.4545455 L58.1818182,13.6363636 L51.8181818,13.6363636 L51.8181818,10 L50,10 L50,13.6363636 L45.4545455,13.6363636 L45.4545455,15.4545455 L50,15.4545455 L50,20.9090909 L44.5454545,20.9090909 L44.5454545,18.1818182 L42.7272727,18.1818182 L42.7272727,20.9090909 L41.8181818,20.9090909 L41.8181818,22.7272727 L42.7272727,22.7272727 L42.7272727,28.1818182 L37.2727273,28.1818182 L37.2727273,28.1818182 L35.4545455,28.1818182 L35.4545455,28.1818182 L35.4545455,28.1818182 L35.4545455,30 L35.4545455,30 L35.4545455,35.4545455 L30,35.4545455 L30,33.6363636 L28.1818182,33.6363636 L28.1818182,35.4545455 L22.7272727,35.4545455 L22.7272727,34.5445455 L20.9090909,34.5445455 L20.9090909,35.4545455 L15.4545455,35.4545455 L15.4545455,33.6363636 L13.6363636,33.6363636 L13.6363636,35.4545455 L8.18181818,35.4545455 L8.18181818,34.5445455 L6.36363636,34.5445455 L6.36363636,35.4545455 L4.34545455,35.4545455 L4.34545455,37.2727273 L6.36363636,37.2727273 L6.36363636,42.7272727 L0,42.7272727 L0,44.5454545 L6.36363636,44.5454545 L6.36363636,50 L0,50 L0,51.8181818 L6.36363636,51.8181818 L6.36363636,58.1809091 L8.18181818,58.1809091 L8.18181818,51.8181818 L13.6363636,51.8181818 L13.6363636,58.1818182 L15.4545455,58.1818182 L15.4545455,51.8181818 L20.9090909,51.8181818 L20.9090909,58.1809091 L22.7272727,58.1809091 L22.7272727,51.8181818 L28.1818182,51.8181818 L28.1818182,58.1818182 L30,58.1818182 L30,51.8181818 L35.4545455,51.8181818 L35.4545455,58.1818182 L37.2727273,58.1818182 L37.2727273,51.8181818 L42.7272727,51.8181818 L42.7272727,58.1818182 L44.5454545,58.1818182 L44.5454545,51.8181818 L50,51.8181818 L50,58.1818182 L51.8181818,58.1818182 L51.8181818,51.8181818 L58.1818182,51.8181818 L58.1818182,50 L51.8181818,50 L51.8181818,44.5454545 L58.1818182,44.5454545 L58.1818182,42.7272727 L51.8181818,42.7272727 L51.8181818,37.2727273 L58.1818182,37.2727273 L58.1818182,35.4545455 L51.8181818,35.4545455 L51.8181818,30 L58.1818182,30 L58.1818182,28.1818182 L51.8181818,28.1818182 L51.8181818,22.7272727 L58.1818182,22.7272727 L58.1818182,20.9090909 L51.8181818,20.9090909 L51.8181818,15.4545455 L58.1818182,15.4545455 Z M37.2727273,30 L42.7272727,30 L42.7272727,35.4545455 L37.2727273,35.4545455 L37.2727273,30 Z M42.7272727,37.2727273 L42.7272727,42.7272727 L37.2727273,42.7272727 L37.2727273,37.2727273 L42.7272727,37.2727273 L42.7272727,37.2727273 Z M35.4545455,37.2727273 L35.4545455,42.7272727 L30,42.7272727 L30,37.2727273 L35.4545455,37.2727273 L35.4545455,37.2727273 Z M28.1818182,37.2727273 L28.1818182,42.7272727 L22.7272727,42.7272727 L22.7272727,37.2727273 L28.1818182,37.2727273 L28.1818182,37.2727273 Z M20.9090909,37.2727273 L20.9090909,42.7272727 L15.4545455,42.7272727 L15.4545455,37.2727273 L20.9090909,37.2727273 L20.9090909,37.2727273 Z M8.18181818,37.2727273 L13.6363636,37.2727273 L13.6363636,42.7272727 L8.18181818,42.7272727 L8.18181818,37.2727273 Z M8.18181818,50 L8.18181818,44.5454545 L13.6363636,44.5454545 L13.6363636,50 L8.18181818,50 Z M15.4545455,50 L15.4545455,44.5454545 L20.9090909,44.5454545 L20.9090909,50 L15.4545455,50 Z M22.7272727,50 L22.7272727,44.5454545 L28.1818182,44.5454545 L28.1818182,50 L22.7272727,50 Z M30,50 L30,44.5454545 L35.4545455,44.5454545 L35.4545455,50 L30,50 Z M37.2727273,50 L37.2727273,44.5454545 L42.7272727,44.5454545 L42.7272727,50 L37.2727273,50 Z M50,50 L44.5454545,50 L44.5454545,44.5454545 L50,44.5454545 L50,50 Z M50,42.7272727 L44.5454545,42.7272727 L44.5454545,37.2727273 L50,37.2727273 L50,42.7272727 Z M50,35.4545455 L44.5454545,35.4545455 L44.5454545,30 L50,30 L50,35.4545455 Z M50,28.1818182 L44.5454545,28.1818182 L44.5454545,22.7272727 L50,22.7272727 L50,28.1818182 Z"/>
      <path fill="#20AEB4" d="M58.1818182,6.15454545 L48.4936364,10.3009091 C46.0618182,9.07363636 43.5509091,11.7818182 44.9345455,14.1118182 L39.5563636,23.6836364 C37.6127273,23.3463636 35.9663636,25.0972727 36.4545455,27.03 L27.0836364,33.28 C26.6290909,32.9372727 26.0681818,32.7272727 25.4545455,32.7272727 C24.4363636,32.7272727 23.56,33.2918182 23.0909091,34.1181818 L12.6818182,32.28 C12.0645455,28.5572727 6.50636364,29.7572727 7.35090909,33.3509091 L0,38.0727273 L0,40.2363636 L8.33636364,34.8745455 C9.68454545,35.9209091 11.5518182,35.4927273 12.3627273,34.0645455 L22.7718182,35.9009091 C22.9854545,37.1936364 24.1009091,38.1818182 25.4536364,38.1818182 C27.1736364,38.1818182 28.5427273,36.5763636 28.0881818,34.7863636 L37.4609091,28.54 C40.0545455,30.4854545 43.2763636,27.0281818 41.1354545,24.5781818 L46.3663636,15.2890909 C48.6045455,16.0809091 50.6518182,13.8745455 49.8036364,11.7281818 L58.1818182,8.13636364 L58.1818182,6.15454545 Z"/>
      <polygon fill="#FABC3D" points="32.727 22.727 25.455 28.182 18.182 22.727 18.182 6.364 32.727 6.364"/>
      <path fill="#FFF" d="M25.4863636,10.1390909 C25.8863636,10.1390909 26.2036364,10.4563636 26.2036364,10.8563636 L26.2036364,11.0490909 C26.9481818,11.16 27.61,11.38 28.2027273,11.7109091 C28.4645455,11.8627273 28.6990909,12.1245455 28.6990909,12.5381818 C28.6990909,13.0618182 28.2854545,13.4618182 27.7618182,13.4618182 C27.5963636,13.4618182 27.4309091,13.4209091 27.2790909,13.3381818 C26.8927273,13.1309091 26.5072727,12.9654545 26.1345455,12.8690909 L26.1345455,14.9645455 C28.2309091,15.53 29.1272727,16.3845455 29.1272727,17.9290909 C29.1272727,19.4736364 27.9418182,20.4663636 26.2045455,20.6590909 L26.2045455,21.39 C26.2045455,21.79 25.8872727,22.1072727 25.4872727,22.1072727 C25.0881818,22.1072727 24.77,21.79 24.77,21.39 L24.77,20.6454545 C23.7909091,20.5209091 22.8672727,20.1763636 22.0536364,19.68 C21.7645455,19.5009091 21.5845455,19.2254545 21.5845455,18.8527273 C21.5845455,18.3145455 21.9981818,17.9145455 22.5354545,17.9145455 C22.7145455,17.9145455 22.9081818,17.9836364 23.0727273,18.0936364 C23.6518182,18.4663636 24.2036364,18.7281818 24.8372727,18.8663636 L24.8372727,16.6736364 C22.8518182,16.1354545 21.8727273,15.3772727 21.8727273,13.7372727 C21.8727273,12.2209091 23.0309091,11.2 24.7681818,11.0209091 L24.7681818,10.8554545 C24.77,10.4563636 25.0872727,10.1390909 25.4863636,10.1390909 Z M24.8381818,14.6063636 L24.8381818,12.7445455 C24.1763636,12.8409091 23.8872727,13.1718182 23.8872727,13.6136364 C23.8872727,14.0409091 24.08,14.33 24.8381818,14.6063636 Z M26.1345455,17.0190909 L26.1345455,18.9354545 C26.7827273,18.8390909 27.1136364,18.5354545 27.1136364,18.0390909 C27.1136364,17.5845455 26.8790909,17.2818182 26.1345455,17.0190909 Z"/>
    </g>
  </g>
</svg>
