<svg xmlns="http://www.w3.org/2000/svg" width="100" height="100" viewBox="0 0 100 100">
  <g fill="none">
    <circle cx="50" cy="50" r="50" fill="#9197A2"/>
    <g transform="translate(20.91 20.91)">
      <path fill="#FFF" d="M54.5454545,40 L18.1818182,40 L18.1818182,54.5454545 C18.1818182,56.5536364 16.5536364,58.1818182 14.5454545,58.1818182 L54.5454545,58.1818182 C56.5536364,58.1818182 58.1818182,56.5536364 58.1818182,54.5454545 L58.1818182,43.6363636 C58.1818182,41.6281818 56.5536364,40 54.5454545,40 Z"/>
      <rect width="5.455" height="10.909" x="36.364" y="43.636" fill="#F79392"/>
      <rect width="5.455" height="10.909" x="45.455" y="43.636" fill="#F79392"/>
      <polygon fill="#DF2C2C" points="18.182 53.681 18.182 54.545 23.636 54.545 23.636 50.767"/>
      <polygon fill="#FA5655" points="27.273 48.825 27.273 54.545 32.727 54.545 32.727 45.911"/>
      <path fill="#FFF" d="M54.65,30.01 L49.35,20.4745455 C48.3745455,18.7190909 46.1609091,18.0872727 44.4054545,19.0627273 L18.1818182,33.07 L18.1818182,53.68 L53.2381818,34.9545455 C54.9936364,33.98 55.6254545,31.7654545 54.65,30.01 Z"/>
      <polygon fill="#FBEC9A" points="37.803 27.375 48.713 27.375 48.713 32.83 37.803 32.83" transform="rotate(60.936 43.258 30.103)"/>
      <polygon fill="#FBE158" points="29.857 31.791 40.766 31.791 40.766 37.246 29.857 37.246" transform="rotate(60.936 35.311 34.519)"/>
      <polygon fill="#FACB1B" points="20.374 49.061 24.455 46.793 23.072 44.305"/>
      <polygon fill="#FACB1B" points="25.174 40.602 27.633 45.026 32.401 42.376 28.327 35.046"/>
      <path fill="#FFF" d="M38.6836364,9.54454545 L29.2809091,4.01272727 C27.55,2.99454545 25.3209091,3.57181818 24.3027273,5.30272727 L18.1818182,16.0890909 L18.1818182,52.9227273 L39.9745455,14.5227273 C40.9927273,12.7918182 40.4154545,10.5627273 38.6836364,9.54454545 Z"/>
      <polygon fill="#40C9E7" points="23.455 12.673 34.364 12.673 34.364 18.127 23.455 18.127" transform="rotate(30.47 28.91 15.4)"/>
      <polygon fill="#21B2D1" points="18.845 20.508 29.754 20.508 29.754 25.962 18.845 25.962" transform="rotate(30.47 24.3 23.235)"/>
      <polygon fill="#059BBF" points="18.182 27.016 18.182 33.345 23.011 36.185 25.777 31.485"/>
      <polygon fill="#0484AB" points="18.182 37.564 18.182 43.892 18.402 44.021 21.167 39.32"/>
      <path fill="#DF2C2C" d="M14.5454545,0 L3.63636364,0 C1.62818182,0 0,1.62818182 0,3.63636364 L0,54.5454545 C0,56.5536364 1.62818182,58.1818182 3.63636364,58.1818182 L14.5454545,58.1818182 C16.5536364,58.1818182 18.1818182,56.5536364 18.1818182,54.5454545 L18.1818182,3.63636364 C18.1818182,1.62818182 16.5536364,0 14.5454545,0 Z M9.09090909,50.9090909 C8.08727273,50.9090909 7.27272727,50.0945455 7.27272727,49.0909091 C7.27272727,48.0872727 8.08727273,47.2727273 9.09090909,47.2727273 C10.0945455,47.2727273 10.9090909,48.0872727 10.9090909,49.0909091 C10.9090909,50.0945455 10.0945455,50.9090909 9.09090909,50.9090909 Z"/>
      <path fill="#FA5655" d="M18.1818182,12.1409091 L18.1818182,3.63636364 C18.1818182,1.62818182 16.5536364,0 14.5454545,0 L3.63636364,0 C1.62818182,0 0,1.62818182 0,3.63636364 L0,30.3227273 L18.1818182,12.1409091 Z"/>
      <path fill="#FFF" d="M.53 35.4781818C.279090909 35.4781818.0863636364 35.2845455.0863636364 35.0345455L.0863636364 33.5027273C.0863636364 32.3290909.751818182 31.5990909 1.76090909 31.5990909L1.77545455 31.5990909C2.89909091 31.5990909 3.48636364 32.5009091 3.48636364 33.6036364L3.48636364 34.5981818 4.69636364 34.5981818C4.94 34.5981818 5.13272727 34.7918182 5.13272727 35.0345455 5.13272727 35.2845455 4.93909091 35.4781818 4.69636364 35.4781818L.53 35.4781818zM2.69181818 33.5736364C2.69181818 32.9081818 2.32 32.4927273 1.79727273 32.4927273L1.78272727 32.4927273C1.19545455 32.4927273.888181818 32.9145455.888181818 33.5736364L.888181818 34.5963636 2.69181818 34.5963636 2.69181818 33.5736364zM4.52454545 31.3809091L.372727273 29.52C.150909091 29.42.0145454545 29.2409091.0145454545 28.99L.0145454545 28.9472727C.0145454545 28.6972727.150909091 28.5254545.372727273 28.4245455L4.52454545 26.5636364C4.58909091 26.5272727 4.65363636 26.5136364 4.71090909 26.5136364 4.94727273 26.5136364 5.13272727 26.6927273 5.13272727 26.9290909 5.13272727 27.1372727 5.01090909 27.28 4.82454545 27.3590909L3.88727273 27.7672727 3.88727273 30.2009091 4.85363636 30.6218182C5.03272727 30.6936364 5.13272727 30.8436364 5.13272727 31.03 5.13272727 31.2590909 4.95363636 31.4381818 4.72454545 31.4381818 4.66 31.4381818 4.59545455 31.4163636 4.52454545 31.3809091zM3.10727273 28.1027273L1.08181818 28.9836364 3.10727273 29.8636364 3.10727273 28.1027273zM.501818182 25.5581818C.258181818 25.5581818.0581818182 25.3645455.0581818182 25.1145455L.0581818182 25.0218182C.0581818182 24.8072727.165454545 24.6854545.315454545 24.5636364L3.55818182 22.0590909.480909091 22.0590909C.244545455 22.0590909.0518181818 21.8654545.0518181818 21.6290909.0518181818 21.3854545.245454545 21.1927273.480909091 21.1927273L4.69 21.1927273C4.93363636 21.1927273 5.12636364 21.3790909 5.12636364 21.6227273L5.12636364 21.6590909C5.12636364 21.8663636 5.01909091 21.9954545 4.86181818 22.1172727L1.52636364 24.6936364 4.70454545 24.6936364C4.94090909 24.6936364 5.13363636 24.8863636 5.13363636 25.1227273 5.13363636 25.3663636 4.94 25.5590909 4.70454545 25.5590909L.501818182 25.5590909.501818182 25.5581818zM.902727273 18.6690909L.902727273 19.8854545C.902727273 20.1145455.716363636 20.2936364.494545455 20.2936364.272727273 20.2936364.0863636364 20.1145455.0863636364 19.8854545L.0863636364 16.5572727C.0863636364 16.3354545.272727273 16.1563636.494545455 16.1563636.716363636 16.1563636.902727273 16.3354545.902727273 16.5572727L.902727273 17.7818182 4.69636364 17.7818182C4.94 17.7818182 5.13272727 17.9818182 5.13272727 18.2254545 5.13272727 18.4690909 4.93909091 18.6690909 4.69636364 18.6690909L.902727273 18.6690909zM2.60545455 15.7536364L2.59090909 15.7536364C1.18090909 15.7536364 0 14.6654545 0 13.1263636 0 11.5872727 1.16636364 10.5136364 2.57636364 10.5136364L2.59090909 10.5136364C4.00090909 10.5136364 5.18181818 11.6018182 5.18181818 13.1409091 5.18181818 14.68 4.01636364 15.7536364 2.60545455 15.7536364zM2.60545455 11.4372727L2.59090909 11.4372727C1.61727273 11.4372727.808181818 12.1463636.808181818 13.1409091.808181818 14.1354545 1.60272727 14.83 2.57636364 14.83L2.59090909 14.83C3.56454545 14.83 4.36636364 14.1218182 4.36636364 13.1263636 4.36636364 12.1318182 3.57909091 11.4372727 2.60545455 11.4372727zM.501818182 9.44454545C.258181818 9.44454545.0581818182 9.25090909.0581818182 9.00090909L.0581818182 8.90727273C.0581818182 8.69272727.165454545 8.57090909.315454545 8.44909091L3.55818182 5.94454545.480909091 5.94454545C.244545455 5.94454545.0518181818 5.75090909.0518181818 5.51454545.0518181818 5.27090909.245454545 5.07818182.480909091 5.07818182L4.69 5.07818182C4.93363636 5.07818182 5.12636364 5.26454545 5.12636364 5.50818182L5.12636364 5.54454545C5.12636364 5.75181818 5.01909091 5.88090909 4.86181818 6.00272727L1.52636364 8.57909091 4.70454545 8.57909091C4.94090909 8.57909091 5.13363636 8.77181818 5.13363636 9.00818182 5.13363636 9.25181818 4.94 9.44454545 4.70454545 9.44454545L.501818182 9.44454545zM4.65272727 3.78636364L.53 3.78636364C.279090909 3.78636364.0863636364 3.59272727.0863636364 3.34272727L.0863636364.429090909C.0863636364.214545455.265454545.0354545455.48.0354545455.701818182.0354545455.873636364.214545455.873636364.429090909L.873636364 2.90545455 2.17636364 2.90545455 2.17636364.750909091C2.17636364.536363636 2.35545455.357272727 2.57727273.357272727 2.79181818.357272727 2.96363636.536363636 2.96363636.750909091L2.96363636 2.90545455 4.30909091 2.90545455 4.30909091.393636364C4.30909091.179090909 4.48818182 0 4.70272727 0 4.92454545 0 5.09636364.179090909 5.09636364.393636364L5.09636364 3.34272727C5.09636364 3.59272727 4.90363636 3.78636364 4.65272727 3.78636364z" transform="translate(6.42 7.515)"/>
    </g>
  </g>
</svg>
