<svg xmlns="http://www.w3.org/2000/svg" width="100" height="100" viewBox="0 0 100 100">
  <g fill="none">
    <circle cx="50" cy="50" r="50" fill="#9EDBFF"/>
    <g transform="translate(20.909 20.91)">
      <path fill="#F0F1F1" d="M0.1255468,54.5881818 C0.313728618,54.1681818 11.7537286,28.5945455 14.2291832,23.0609091 C13.5910013,26.38 17.4337286,32.3845455 21.6155468,36.5672727 C26.6982741,41.65 32.4028195,44.6309091 35.357365,43.8709091 C30.2355468,46.1636364 3.99100135,57.8809091 3.59463771,58.0572727 C2.86918316,58.3909091 1.77463771,58.0418182 0.961910436,57.2209091 C0.141001345,56.4081818 -0.208089564,55.3136364 0.1255468,54.5881818 Z"/>
      <path fill="#FFF" d="M0.1255468,54.5881818 C0.313728618,54.1681818 11.7537286,28.5945455 14.2291832,23.0609091 C13.5919104,26.3772727 17.4264559,32.3736364 21.6037286,36.5554545 L0.950092254,57.2072727 C0.138274073,56.3972727 -0.206271382,55.31 0.1255468,54.5881818 Z"/>
      <circle cx="20.909" cy="12.727" r="1.818" fill="#DF2C2C"/>
      <circle cx="35.455" cy="16.364" r="1.818" fill="#F37A10"/>
      <circle cx="52.727" cy="23.636" r="1.818" fill="#059BBF"/>
      <circle cx="53.636" cy="43.636" r="1.818" fill="#FA5655"/>
      <circle cx="32.727" cy="3.636" r="1.818" fill="#12B2A0"/>
      <polygon fill="#FA5655" points="45.343 3.32 41.75 5.151 38.898 2.299 39.529 6.283 35.936 8.114 39.919 8.745 40.55 12.727 42.381 9.134 46.364 9.765 43.512 6.914"/>
      <polygon fill="#F37A10" points="44.577 33.636 43.711 36.302 40.909 36.302 43.176 37.807 42.31 40.402 44.577 38.719 46.845 40.348 45.978 37.816 48.246 36.302 45.444 36.302"/>
      <path fill="#DF2C2C" d="M38.1819104,24.5454545 C47.237365,24.5454545 49.1410013,18.7881818 50.6700923,14.1627273 C51.9437286,10.3136364 52.9491832,7.27272727 57.2728195,7.27272727 C57.7746377,7.27272727 58.1819104,6.86545455 58.1819104,6.36363636 C58.1819104,5.86181818 57.7746377,5.45454545 57.2728195,5.45454545 C51.6355468,5.45454545 50.267365,9.59181818 48.9446377,13.5918182 C47.3910013,18.29 45.9237286,22.7272727 38.1819104,22.7272727 C37.6800923,22.7272727 37.2728195,23.1345455 37.2728195,23.6363636 C37.2728195,24.1381818 37.6800923,24.5454545 38.1819104,24.5454545 Z"/>
      <path fill="#059BBF" d="M26.0228195,18.8918182 C32.3937286,13.7945455 30.1310013,10.3827273 27.9428195,7.08181818 C26.7191832,5.23727273 25.4546377,3.33 25.4546377,0.909090909 C25.4546377,0.407272727 25.047365,0 24.5455468,0 C24.0437286,0 23.6364559,0.407272727 23.6364559,0.909090909 C23.6364559,3.87818182 25.1191832,6.11363636 26.427365,8.08727273 C28.5546377,11.2945455 29.9600923,13.4145455 24.8864559,17.4727273 C24.4946377,17.7863636 24.4310013,18.3581818 24.7446377,18.7509091 C25.0610013,19.1445455 25.6328195,19.2036364 26.0228195,18.8918182 Z"/>
      <path fill="#12B2A0" d="M57.2728195,35.4545455 C57.7746377,35.4545455 58.1819104,35.0472727 58.1819104,34.5454545 C58.1819104,34.0436364 57.7746377,33.6363636 57.2728195,33.6363636 C54.6746377,33.6363636 52.6010013,32.2536364 50.5955468,30.9163636 C47.357365,28.7572727 44.0082741,26.5236364 39.357365,31.1754545 C39.0019104,31.53 39.0019104,32.1063636 39.357365,32.4609091 C39.7119104,32.8163636 40.2882741,32.8163636 40.6428195,32.4609091 C44.2400923,28.8645455 46.3664559,30.2827273 49.5864559,32.4290909 C51.7137286,33.8472727 54.1237286,35.4545455 57.2728195,35.4545455 Z"/>
      <path fill="#DF2C2C" d="M14.7464559,53.0472727 C6.45827407,56.7827273 16.437365,52.3054545 8.14100135,56.0236364 C6.12100135,53.9281818 4.20827407,51.6818182 2.48463771,49.3145455 C3.45009225,47.1563636 4.62645589,44.5254545 5.86281953,41.7627273 C8.24918316,45.9727273 11.2837286,49.8027273 14.7464559,53.0472727 Z"/>
      <path fill="#FA5655" d="M10.1210013,48.0363636 L5.28827407,52.87 C4.31100135,51.7190909 3.37191044,50.5336364 2.48463771,49.3136364 C3.45009225,47.1554545 4.62645589,44.5245455 5.86281953,41.7618182 C7.11372862,43.9690909 8.54645589,46.0681818 10.1210013,48.0363636 Z"/>
      <path fill="#E2E4E5" d="M21.6155468,36.5663636 C27.5064559,42.4563636 34.2419104,45.5372727 36.5500923,43.2254545 C38.8400923,40.9354545 35.8528195,34.2518182 29.8891832,28.28 C23.917365,22.3163636 17.2355468,19.3390909 14.9446377,21.6190909 C12.2782741,24.2827273 16.7255468,31.6763636 21.6155468,36.5663636 Z"/>
      <path fill="#DF2C2C" d="M20.2928195,39.5981818 C17.0437286,35.2009091 15.077365,30.5563636 14.6619104,26.4072727 C14.2191832,25.1436364 14.0491832,23.9990909 14.2282741,23.0627273 L9.12736498,34.4836364 C10.4055468,37.2445455 12.0610013,40.0190909 14.0455468,42.7063636 C16.1110013,45.5009091 18.4364559,48.0627273 20.9137286,50.32 L27.8246377,47.2327273 C25.0846377,45.1863636 22.487365,42.5809091 20.2928195,39.5981818 Z"/>
      <path fill="#F0F1F1" d="M29.8828195,28.2745455 L21.6037286,36.5536364 C16.7182741,31.6636364 12.2810013,24.28 14.9437286,21.6190909 C17.2346377,19.3409091 23.9128195,22.3154545 29.8828195,28.2745455 Z"/>
      <path fill="#FA5655" d="M14.2282741,23.0627273 L9.12736498,34.4836364 C10.4055468,37.2445455 12.0610013,40.0190909 14.0455468,42.7063636 C14.2446377,42.9754545 14.457365,43.2318182 14.6610013,43.4972727 L19.5819104,38.5763636 C16.7619104,34.4827273 15.0419104,30.2309091 14.6582741,26.3990909 C14.2182741,25.1381818 14.0491832,23.9963636 14.2282741,23.0627273 Z"/>
    </g>
  </g>
</svg>
