<svg xmlns="http://www.w3.org/2000/svg" width="50" height="50" viewBox="0 0 50 50">
  <path fill="#20AEB4" d="M83.4764648,105 C82.9420598,105.002331 82.4151487,104.868967 81.9413101,104.611415 L70.9759197,98.6459606 C70.3374232,98.2964465 69.5748537,98.2964465 68.9363571,98.6459606 L66.4362481,100.017329 C65.7406674,100.420197 64.8902678,100.39876 64.2141896,99.9613145 C63.5381114,99.5238694 63.1424511,98.7390645 63.1803458,97.9106522 C63.2182405,97.0822399 63.6837435,96.3402224 64.3966855,95.9717915 L66.8967945,94.6004227 C68.8122842,93.5518803 71.0999927,93.5518803 73.0154824,94.6004227 L81.9193794,99.491638 L80.2087785,89.16066 C79.8452585,86.9414376 80.5501862,84.6776227 82.0948256,83.1037812 L89.3977757,75.6526776 L79.4412011,74.144172 C77.2978213,73.8210203 75.4443132,72.4192437 74.4848447,70.395764 L70.0986885,61.001888 L65.7125323,70.395764 C64.7543675,72.4851554 62.8490088,73.9293409 60.646522,74.2355966 L50.6899474,75.6526776 L57.9051743,82.9666444 C59.4568142,84.5454474 60.1623314,86.8197052 59.7912215,89.0463792 L57.7077973,101.662972 C57.5018927,102.925282 56.3530996,103.774625 55.141896,103.560032 C53.9306924,103.345439 53.1157366,102.148173 53.3216411,100.885863 L55.4050653,88.2692702 C55.5294578,87.5232723 55.291286,86.7614893 54.7690727,86.2350732 L45.9967604,77.2983201 C45.0982718,76.3880607 44.7740016,75.0248723 45.1604578,73.7826163 C45.546914,72.5403604 46.5769747,71.6347992 47.8170152,71.4471468 L59.9666677,69.5957989 C60.6799262,69.4841484 61.2949103,69.0141307 61.6114763,68.3387109 L67.0503099,56.9106379 C67.60457,55.7406595 68.7480186,55 70,55 C71.2519814,55 72.3954299,55.7406595 72.94969,56.9106379 L78.3885237,68.3387109 C78.7050897,69.0141307 79.3200738,69.4841484 80.0333322,69.5957989 L92.1829848,71.4471468 C93.4230253,71.6347992 94.453086,72.5403604 94.8395422,73.7826163 C95.2259984,75.0248723 94.9017282,76.3880607 94.0032396,77.2983201 L85.2309273,86.2350732 C84.715713,86.7565431 84.4781378,87.5078797 84.5949346,88.2464141 L86.7002896,100.977287 C86.8689865,101.976242 86.6045944,103.001772 85.9782159,103.778085 C85.3518373,104.554398 84.4277745,105.001799 83.454534,105 L83.4764648,105 Z" transform="translate(-45 -55)"/>
</svg>
